<?xml version="1.0" encoding="UTF-8" standalone="no"?>
<svg
   xmlns:dc="http://purl.org/dc/elements/1.1/"
   xmlns:cc="http://creativecommons.org/ns#"
   xmlns:rdf="http://www.w3.org/1999/02/22-rdf-syntax-ns#"
   xmlns:svg="http://www.w3.org/2000/svg"
   xmlns="http://www.w3.org/2000/svg"
   xmlns:sodipodi="http://sodipodi.sourceforge.net/DTD/sodipodi-0.dtd"
   xmlns:inkscape="http://www.inkscape.org/namespaces/inkscape"
   width="32"
   height="32"
   viewBox="0 0 24.003008 24.003008"
   version="1.1"
   id="svg3"
   sodipodi:docname="good2.svg"
   inkscape:version="0.92.1 r15371">
  <metadata
     id="metadata9">
    <rdf:RDF>
      <cc:Work
         rdf:about="">
        <dc:format>image/svg+xml</dc:format>
        <dc:type
           rdf:resource="http://purl.org/dc/dcmitype/StillImage" />
        <dc:title></dc:title>
      </cc:Work>
    </rdf:RDF>
  </metadata>
  <defs
     id="defs7" />
  <sodipodi:namedview
     pagecolor="#ffffff"
     bordercolor="#666666"
     borderopacity="1"
     objecttolerance="10"
     gridtolerance="10"
     guidetolerance="10"
     inkscape:pageopacity="0"
     inkscape:pageshadow="2"
     inkscape:window-width="1680"
     inkscape:window-height="978"
     id="namedview5"
     showgrid="false"
     units="px"
     inkscape:zoom="11.063886"
     inkscape:cx="26.270695"
     inkscape:cy="31.609516"
     inkscape:window-x="0"
     inkscape:window-y="0"
     inkscape:window-maximized="1"
     inkscape:current-layer="svg3" />
  <path
     id="Selection"
     d="m 20.391186,2.351321 c 0,0 -0.05116,0.051154 -0.05116,0.051154 0,0 0,-0.051154 0,-0.051154 0,0 0.05116,0 0.05116,0 z M 4.9844296,4.859404 c 0,-0.6940934 0.00973,-1.3835512 0.8189577,-1.6353773 0.1909336,-0.059383 0.3168348,-0.05323 0.5118558,-0.053747 0,0 8.6503059,0 8.6503059,0 0,0 3.327033,0 3.327033,0 0.83583,0.00343 1.278102,0.4437638 1.27962,1.2796263 0,0 0,6.449335 0,6.449335 0,0.118237 -0.01069,0.288174 0.05223,0.390023 0.128991,0.206267 0.559464,0.288696 0.823039,0.591708 0.493455,0.567134 0.434043,0.814337 0.60912,1.475153 0,0 -0.972504,0.709934 -0.972504,0.709934 -0.140765,0.106002 -0.379296,0.264626 -0.459655,0.418222 -0.06197,0.118717 -0.05168,0.276361 -0.05223,0.407403 0,0 0,4.401916 0,4.401916 0,0 0,0.921336 0,0.921336 0,0.672061 -0.01028,1.250967 -0.767814,1.528898 -0.175021,0.06398 -0.329598,0.05732 -0.511806,0.05792 0,0 -10.1858587,0 -10.1858587,0 0,0 -1.4331788,0 -1.4331788,0 -0.6833237,0 -1.3328578,0.02557 -1.6067012,-0.767778 -0.075242,-0.218047 -0.081908,-0.438141 -0.082417,-0.66541 0,0 0,-1.904086 0,-1.904086 0,0 -1.637925,0 -1.637925,0 C 3.0997895,18.39737 2.9124521,18.173752 2.9748994,17.912705 3.0480904,17.6056 3.3362603,17.55697 3.6024266,17.553394 c 0,0 1.3820002,0 1.3820002,0 0,0 0,-2.712829 0,-2.712829 0,0 -1.1772575,0 -1.1772575,0 -0.1417828,0 -0.327586,0.0067 -0.4596428,-0.04563 -0.2999456,-0.118241 -0.3977092,-0.469363 -0.1837566,-0.710454 0.1622581,-0.183233 0.3705826,-0.164785 0.5922143,-0.165315 0,0 1.2284428,0 1.2284428,0 0,0 0,-2.86638 0,-2.86638 0,0 -1.0748867,0 -1.0748867,0 -0.1484354,0 -0.4325162,0.01331 -0.5620136,-0.03788 -0.2953372,-0.116198 -0.3982195,-0.477048 -0.1837565,-0.718119 0.1622581,-0.183245 0.3705826,-0.16482 0.5922143,-0.165306 0,0 1.2284426,0 1.2284426,0 0,0 0,-2.7128362 0,-2.7128362 0,0 -1.1772573,0 -1.1772573,0 -0.1417828,0 -0.327586,0.00657 -0.4596428,-0.04556 C 3.047582,7.2548504 2.9498186,6.9037625 3.163771,6.6626577 3.3260297,6.4794015 3.5343549,6.4978404 3.7559856,6.4973168 c 0,0 1.2284427,0 1.2284427,0 0,0 0,-1.6378971 0,-1.6378983 z"
     inkscape:connector-curvature="0"
     style="fill:none;stroke:#000000;stroke-width:0.05118513" />
</svg>
