<?xml version="1.0" encoding="UTF-8" standalone="no"?>
<svg
   xmlns:dc="http://purl.org/dc/elements/1.1/"
   xmlns:cc="http://creativecommons.org/ns#"
   xmlns:rdf="http://www.w3.org/1999/02/22-rdf-syntax-ns#"
   xmlns:svg="http://www.w3.org/2000/svg"
   xmlns="http://www.w3.org/2000/svg"
   xmlns:sodipodi="http://sodipodi.sourceforge.net/DTD/sodipodi-0.dtd"
   xmlns:inkscape="http://www.inkscape.org/namespaces/inkscape"
   width="32"
   height="32"
   viewBox="0 0 24.002941 24.002941"
   version="1.1"
   id="svg3"
   sodipodi:docname="hey2.svg"
   inkscape:version="0.92.1 r15371">
  <metadata
     id="metadata9">
    <rdf:RDF>
      <cc:Work
         rdf:about="">
        <dc:format>image/svg+xml</dc:format>
        <dc:type
           rdf:resource="http://purl.org/dc/dcmitype/StillImage" />
        <dc:title></dc:title>
      </cc:Work>
    </rdf:RDF>
  </metadata>
  <defs
     id="defs7" />
  <sodipodi:namedview
     pagecolor="#ffffff"
     bordercolor="#666666"
     borderopacity="1"
     objecttolerance="10"
     gridtolerance="10"
     guidetolerance="10"
     inkscape:pageopacity="0"
     inkscape:pageshadow="2"
     inkscape:window-width="1680"
     inkscape:window-height="978"
     id="namedview5"
     showgrid="false"
     units="px"
     inkscape:zoom="15.646654"
     inkscape:cx="19.228184"
     inkscape:cy="9.9156618"
     inkscape:window-x="0"
     inkscape:window-y="0"
     inkscape:window-maximized="1"
     inkscape:current-layer="svg3" />
  <path
     id="Selection #1"
     d="m 18.079014,8.8530957 c -0.655196,2.1725163 -2.275967,3.3966903 -3.738685,4.9341153 -1.882243,1.974216 -1.258644,4.658243 -3.152416,4.020305 -1.2299331,-0.416702 -0.882217,-2.290332 -0.566115,-3.207033 1.002919,-2.9168 4.666861,-4.551945 5.031814,-7.1842346 C 16.030067,4.7092544 12.960981,3.1660766 10.549958,4.0425594 8.7079255,4.7149929 8.368831,5.8213619 7.6130535,7.3846388 7.2998208,8.0369793 6.80555,8.6203234 5.9894203,8.3616897 4.6704053,7.9478811 5.2365158,6.0225218 5.5813585,5.1173122 6.5842742,2.4936302 8.5728636,1.6861359 11.124698,1.2234724 c 4.413969,-0.37932978 8.34803,3.0058671 6.954316,7.6296233 z M 11.946567,22.083542 c -1.06039,0.255748 -2.5144691,-1.319034 -0.531632,-2.29034 1.916756,0.09503 1.502936,2.054704 0.531632,2.29034 z"
     inkscape:connector-curvature="0"
     style="fill:none;stroke:#000000;stroke-width:0.28736833" />
</svg>
